# xmcd
#
# Track frame offsets:
# 150
# 11080
# 22560
# 36485
# 45160
# 54903
# 75082
# 89465
# 113846
# 123613
# 136891
# 145413
# 159754
# 184900
# 233000
# 243460
# 257944
# 271619
# 290606
# 302143
#
# Disc length: 4165 seconds
#
#
# Revision: 1
# Processed by: cddbd v1.5.2PL0 Copyright (c) Steve Scherf et al.
# Submitted via: FreeRIP 2.945 
#
DISCID=00104314
DTITLE=Various Artist - Cafe New York - Classic Sounds of New York City
DYEAR=2006
DGENRE=Jazz
TTITLE0=Nina Simone - Central Park Blues
TTITLE1=Lena Horne - Night and Day
TTITLE2=Ella Fitzgerald and Louis Armstrong - Dream A Little Dream Of Me
TTITLE3=Frank Sinatra - I've Got You Under My Skin
TTITLE4=Tony Bennett - Blue Moon
TTITLE5=Glenn Miller - Moonlight Serenade
TTITLE6=Nat King Cole - I'm In The Mood For Love
TTITLE7=Dave Brubeck - Take Five
TTITLE8=Sarah Vaughan - Careless
TTITLE9=Duke Ellington - Take The "A" Train
TTITLE10=Ray Charles - Hit The Road, Jack
TTITLE11=Tony Bennett - As Time Goes By
TTITLE12=Thelonious Monk - Ruby My Dear
TTITLE13=Chet Baker - Stella By Starlight
TTITLE14=Glenn Miller - That Old Feeling
TTITLE15=Quincy Jones - Exodus
TTITLE16=Billie Holiday - Moanin' Low
TTITLE17=The Pasadena Roof Orchestra - Stardust
TTITLE18=Frank Sinatra - My Funny Valentine
TTITLE19=Louis Armstrong - What A Wonderful World
EXTD=
EXTT0=
EXTT1=
EXTT2=
EXTT3=
EXTT4=
EXTT5=
EXTT6=
EXTT7=
EXTT8=
EXTT9=
EXTT10=
EXTT11=
EXTT12=
EXTT13=
EXTT14=
EXTT15=
EXTT16=
EXTT17=
EXTT18=
EXTT19=
PLAYORDER=
